PathFileType	4	(x/y/z)	TRC_MarkerData\Passive\Passive_Pref0011.trc
DataRate	CameraRate	NumFrames	NumMarkers	Units	OrigDataRate	OrigDataStartFrame	OrigNumFrames
240	240	8	50	mm	240	116	309
Frame#	Time	R_AC			L_AC			HEAD			STERN			C7			L_IC			R_IC			L_ASIS			R_ASIS			L_GT			R_GT			L_PSIS			R_PSIS			SACRAL			L_LAT_KNEE			L_MED_KNEE			R_LAT_KNEE			R_MED_KNEE			L_LAT_ANK			L_MED_ANK			R_LAT_ANK			R_MED_ANK			L_THIGH_PROX_POST			L_THIGH_PROX_ANT			L_THIGH_DIST_ANT			L_THIGH_DIST_POST			R_THIGH_PROX_POST			R_THIGH_PROX_ANT			R_THIGH_DIST_ANT			R_THIGH_DIST_POST			L_SHANK_PROX_POST			L_SHANK_PROX_ANT			L_SHANK_DIST_ANT			L_SHANK_DIST_POST			R_SHANK_PROX_POST			R_SHANK_PROX_ANT			R_SHANK_DIST_ANT			R_SHANK_DIST_POST			L_HEEL_LAT			L_HEEL_SUP			L_HEEL_MED			R_HEEL_LAT			R_HEEL_SUP			R_HEEL_MED			L_1ST_MET			L_5TH_MET			L_TOE			R_1ST_MET			R_5TH_MET			R_TOE			
		X1	Y1	Z1	X2	Y2	Z2	X3	Y3	Z3	X4	Y4	Z4	X5	Y5	Z5	X6	Y6	Z6	X7	Y7	Z7	X8	Y8	Z8	X9	Y9	Z9	X10	Y10	Z10	X11	Y11	Z11	X12	Y12	Z12	X13	Y13	Z13	X14	Y14	Z14	X15	Y15	Z15	X16	Y16	Z16	X17	Y17	Z17	X18	Y18	Z18	X19	Y19	Z19	X20	Y20	Z20	X21	Y21	Z21	X22	Y22	Z22	X23	Y23	Z23	X24	Y24	Z24	X25	Y25	Z25	X26	Y26	Z26	X27	Y27	Z27	X28	Y28	Z28	X29	Y29	Z29	X30	Y30	Z30	X31	Y31	Z31	X32	Y32	Z32	X33	Y33	Z33	X34	Y34	Z34	X35	Y35	Z35	X36	Y36	Z36	X37	Y37	Z37	X38	Y38	Z38	X39	Y39	Z39	X40	Y40	Z40	X41	Y41	Z41	X42	Y42	Z42	X43	Y43	Z43	X44	Y44	Z44	X45	Y45	Z45	X46	Y46	Z46	X47	Y47	Z47	X48	Y48	Z48	X49	Y49	Z49	X50	Y50	Z50	

116	0.48072	-294.43	1530.9	453.86	-308.76	1547.6	48.595	-257.86	1861.3	262.55	-227.91	1500.4	253.38	-359.94	1582.6	250.56	-322.63	1099.4	100.71	-333.93	1122.7	435.98	-273.52	1043	134.72	-265.89	1056.9	400.25	-377.61	967.48	88.807	-343.87	979.12	453.74	-471.46	1069.7	216.4	-466.45	1058.9	321.96	-480.19	1031.7	268.36	-400.16	569.1	133.81	-401.71	588.59	272.05	-176.1	585.17	436.97	-169.82	577.2	302.51	-526.45	122.52	172.27	-536.33	124.14	260.05	-190.88	104.9	404.72	-147.73	148.36	316.3	-411.25	792.05	107.88	-349.6	776.09	105.2	-356.31	705.61	120.8	-419.9	717.26	119.42	-286.27	796.02	460.39	-221.8	825.62	455.78	-194.87	754.44	452.52	-259.69	726	453.59	-442.91	476.45	155.94	-380.55	467.25	165.23	-389.42	418.39	175.28	-445.39	427.82	156.13	-209.3	397.34	447.4	-142.69	406.77	438.15	-140.54	332.99	427	-208.22	323.28	434.71	-585.57	48.619	175.92	-604.59	77.806	205.47	-597.49	52.452	241.74	-249.75	48.917	367.39	-251.67	81.939	336.16	-225.16	61.437	307.4	-377.84	47.764	294.26	-387.61	44.822	183.47	-327.1	60.084	266.77	-20.983	95.218	343.03	-50.996	70.267	445.94	17.843	105.44	389.34
117	0.4849	-288.74	1530.5	453.85	-303.64	1547.3	48.645	-252.39	1860.9	262.66	-222.58	1500	253.27	-354.66	1582.3	250.66	-318.06	1099.1	100.77	-328.49	1122.4	436.09	-268.92	1042.6	134.62	-260.49	1056.3	400.18	-373.34	967.31	89.01	-338.62	978.71	453.85	-466.67	1069.7	216.94	-461.32	1058.8	322.48	-475.25	1031.6	268.87	-397.55	569.02	133.94	-399	588.47	272.21	-171.81	584.36	436.35	-165.31	576.47	301.91	-526.14	122.82	172.26	-536.02	124.46	260.07	-175.02	103.62	403.69	-132.71	148.42	315.55	-407.56	792.11	107.99	-346.11	775.83	105.3	-353.12	705.42	120.91	-416.67	717.37	119.58	-281.81	795.25	460.12	-217.32	824.69	455.71	-190.57	753.46	452.27	-255.45	725.19	453.13	-440.77	476.57	156.06	-378.44	467.08	165.34	-387.55	418.24	175.39	-443.48	427.95	156.25	-201.14	395.7	446.52	-134.7	406.75	437.61	-130.72	333.07	426.39	-198.19	321.69	433.73	-585.45	49.048	175.94	-604.34	78.254	205.5	-597.38	52.913	241.77	-232.31	46.216	366.01	-235.02	79.241	334.83	-207.83	59.541	306.11	-377.71	47.655	294.31	-387.52	44.801	183.5	-326.93	59.825	266.82	-4.7515	98.589	342.64	-34.459	72.633	445.36	33.646	109.68	389.14
118	0.48908	-283.04	1530	453.85	-298.52	1547	48.705	-246.92	1860.4	262.79	-217.24	1499.6	253.16	-349.38	1582	250.77	-313.47	1098.8	100.83	-323	1122	436.2	-264.3	1042.2	134.52	-255.04	1055.8	400.11	-369.05	967.13	89.215	-333.3	978.26	453.95	-461.83	1069.7	217.5	-456.14	1058.7	323.03	-470.28	1031.5	269.41	-394.92	568.94	134.08	-396.28	588.35	272.36	-167.59	583.49	435.73	-160.88	575.67	301.31	-525.82	123.12	172.25	-535.71	124.77	260.1	-159.25	102.56	402.6	-117.83	148.7	314.75	-403.87	792.17	108.1	-342.62	775.55	105.4	-349.92	705.22	121.01	-413.42	717.48	119.74	-277.36	794.43	459.86	-212.84	823.69	455.64	-186.3	752.38	452.04	-251.25	724.33	452.67	-438.61	476.69	156.18	-376.32	466.9	165.44	-385.66	418.08	175.5	-441.55	428.07	156.37	-193.02	394.09	445.62	-126.8	406.75	437.05	-121	333.22	425.74	-188.23	320.18	432.72	-585.34	49.489	175.97	-604.06	78.706	205.55	-597.26	53.382	241.8	-214.93	43.783	364.58	-218.44	76.801	333.46	-190.6	57.927	304.77	-377.57	47.551	294.36	-387.44	44.782	183.52	-326.76	59.566	266.87	11.257	102.19	342.18	-18.093	75.214	444.72	49.213	114.11	388.86
119	0.49326	-277.32	1529.6	453.85	-293.4	1546.6	48.775	-241.43	1860	262.92	-211.89	1499.1	253.05	-344.09	1581.6	250.89	-308.88	1098.4	100.89	-317.47	1121.6	436.31	-259.66	1041.7	134.42	-249.55	1055.2	400.03	-364.75	966.93	89.424	-327.9	977.77	454.04	-456.93	1069.6	218.07	-450.93	1058.5	323.58	-465.27	1031.4	269.95	-392.28	568.84	134.22	-393.52	588.21	272.52	-163.43	582.56	435.09	-156.54	574.82	300.7	-525.51	123.43	172.25	-535.4	125.1	260.14	-143.6	101.71	401.45	-103.09	149.18	313.88	-400.18	792.22	108.23	-339.11	775.25	105.5	-346.71	705.01	121.11	-410.15	717.58	119.91	-272.9	793.56	459.61	-208.35	822.61	455.59	-182.05	751.23	451.81	-247.08	723.41	452.21	-436.44	476.8	156.3	-374.18	466.71	165.55	-383.77	417.92	175.61	-439.61	428.19	156.5	-184.96	392.51	444.71	-119	406.77	436.46	-111.39	333.43	425.06	-178.33	318.75	431.7	-585.23	49.941	176	-603.77	79.163	205.6	-597.14	53.859	241.83	-197.63	41.622	363.09	-201.96	74.622	332.04	-173.48	56.592	303.37	-377.44	47.452	294.41	-387.34	44.765	183.55	-326.6	59.309	266.91	27.023	106.01	341.65	-1.9141	78	444	64.528	118.74	388.51
120	0.49744	-271.58	1529	453.87	-288.27	1546.2	48.857	-235.94	1859.5	263.07	-206.52	1498.6	252.96	-338.8	1581.2	251.02	-304.27	1098.1	100.96	-311.89	1121.2	436.43	-255.01	1041.3	134.31	-244.02	1054.6	399.94	-360.42	966.72	89.635	-322.42	977.25	454.12	-451.99	1069.5	218.65	-445.67	1058.3	324.15	-460.23	1031.3	270.51	-389.62	568.74	134.37	-390.75	588.06	272.69	-159.33	581.57	434.46	-152.27	573.92	300.08	-525.19	123.75	172.25	-535.08	125.43	260.18	-128.07	101.08	400.24	-88.527	149.87	312.96	-396.49	792.26	108.36	-335.6	774.94	105.6	-343.48	704.8	121.21	-406.87	717.67	120.09	-268.42	792.65	459.36	-203.86	821.46	455.55	-177.81	750	451.59	-242.92	722.43	451.75	-434.25	476.9	156.43	-372.02	466.51	165.66	-381.85	417.75	175.73	-437.65	428.3	156.63	-176.94	390.96	443.79	-111.29	406.8	435.84	-101.88	333.69	424.35	-168.5	317.4	430.65	-585.11	50.406	176.04	-603.47	79.627	205.66	-597.01	54.345	241.87	-180.46	39.731	361.56	-185.59	72.703	330.56	-156.52	55.534	301.91	-377.3	47.357	294.45	-387.25	44.75	183.58	-326.43	59.054	266.95	42.532	110.03	341.04	14.059	80.981	443.2	79.575	123.54	388.08
121	0.50162	-265.82	1528.5	453.89	-283.13	1545.8	48.951	-230.45	1859	263.22	-201.15	1498.1	252.87	-333.5	1580.8	251.17	-299.65	1097.7	101.02	-306.26	1120.8	436.53	-250.34	1040.8	134.2	-238.45	1054	399.84	-356.08	966.49	89.849	-316.86	976.69	454.2	-446.99	1069.3	219.24	-440.38	1058.1	324.73	-455.15	1031.1	271.08	-386.94	568.62	134.52	-387.94	587.9	272.85	-155.26	580.53	433.83	-148.06	572.98	299.45	-524.88	124.07	172.26	-534.75	125.77	260.23	-112.7	100.66	398.97	-74.145	150.76	311.99	-392.78	792.3	108.51	-332.07	774.61	105.69	-340.23	704.58	121.31	-403.56	717.75	120.27	-263.91	791.7	459.13	-199.34	820.25	455.52	-173.56	748.7	451.38	-238.76	721.41	451.3	-432.03	477	156.56	-369.85	466.31	165.78	-379.92	417.58	175.84	-435.68	428.41	156.76	-168.97	389.45	442.85	-103.66	406.85	435.2	-92.485	334.02	423.61	-158.74	316.13	429.58	-584.99	50.882	176.08	-603.16	80.099	205.73	-596.88	54.84	241.91	-163.41	38.108	359.96	-169.36	71.04	329.04	-139.71	54.746	300.4	-377.16	47.266	294.49	-387.16	44.737	183.61	-326.27	58.801	266.99	57.765	114.23	340.35	29.808	84.143	442.33	94.339	128.5	387.56
122	0.5058	-260.05	1528	453.93	-277.99	1545.4	49.058	-224.94	1858.4	263.39	-195.75	1497.6	252.79	-328.18	1580.3	251.33	-295.01	1097.3	101.09	-300.58	1120.3	436.64	-245.65	1040.3	134.08	-232.83	1053.4	399.72	-351.71	966.25	90.065	-311.2	976.1	454.26	-441.95	1069.1	219.84	-435.04	1057.9	325.31	-450.03	1030.9	271.66	-384.23	568.49	134.67	-385.1	587.72	273.02	-151.21	579.44	433.2	-143.91	571.99	298.83	-524.56	124.39	172.27	-534.42	126.11	260.28	-97.511	100.44	397.65	-59.967	151.82	310.95	-389.07	792.34	108.66	-328.52	774.27	105.79	-336.96	704.35	121.41	-400.23	717.83	120.46	-259.37	790.72	458.91	-194.78	818.98	455.49	-169.29	747.33	451.18	-234.6	720.35	450.87	-429.8	477.09	156.69	-367.65	466.09	165.89	-377.98	417.4	175.96	-433.68	428.51	156.9	-161.04	387.98	441.91	-96.119	406.91	434.54	-83.195	334.39	422.83	-149.04	314.93	428.49	-584.87	51.37	176.13	-602.85	80.581	205.82	-596.74	55.344	241.96	-146.54	36.746	358.32	-153.28	69.63	327.46	-123.11	54.22	298.83	-377.02	47.179	294.53	-387.07	44.725	183.64	-326.1	58.549	267.03	72.706	118.6	339.58	45.315	87.467	441.39	108.81	133.59	386.96
123	0.50998	-254.26	1527.4	453.98	-272.83	1544.9	49.18	-219.44	1857.9	263.57	-190.35	1497	252.72	-322.83	1579.9	251.51	-290.35	1096.9	101.15	-294.85	1119.8	436.74	-240.93	1039.8	133.96	-227.18	1052.7	399.6	-347.32	965.99	90.284	-305.46	975.47	454.31	-436.86	1068.9	220.44	-429.65	1057.6	325.89	-444.88	1030.6	272.24	-381.5	568.35	134.82	-382.23	587.53	273.18	-147.16	578.31	432.57	-139.81	570.96	298.2	-524.24	124.73	172.29	-534.08	126.47	260.34	-82.515	100.42	396.27	-46.011	153.06	309.86	-385.34	792.36	108.82	-324.96	773.9	105.89	-333.67	704.11	121.5	-396.88	717.89	120.64	-254.77	789.7	458.71	-190.18	817.66	455.48	-165	745.9	450.99	-230.42	719.24	450.44	-427.54	477.17	156.83	-365.43	465.85	166	-376.01	417.2	176.07	-431.67	428.61	157.04	-153.15	386.55	440.95	-88.65	406.98	433.85	-74.012	334.82	422.02	-139.43	313.82	427.39	-584.74	51.87	176.18	-602.54	81.074	205.91	-596.59	55.859	242.01	-129.86	35.639	356.61	-137.4	68.466	325.83	-106.72	53.943	297.21	-376.88	47.096	294.56	-386.97	44.715	183.67	-325.94	58.301	267.06	87.34	123.1	338.74	60.559	90.932	440.37	122.96	138.79	386.28
